<?xml version="1.0" standalone="no"?>
<!DOCTYPE svg PUBLIC "-//W3C//DTD SVG 20010904//EN"
 "http://www.w3.org/TR/2001/REC-SVG-20010904/DTD/svg10.dtd">
<svg version="1.0" xmlns="http://www.w3.org/2000/svg"
 width="512.000000pt" height="512.000000pt" viewBox="0 0 512.000000 512.000000"
 preserveAspectRatio="xMidYMid meet">

<g transform="translate(0.000000,512.000000) scale(0.100000,-0.100000)"
fill="#000000" stroke="none">
<path d="M2515 5109 c-31 -17 -1094 -1081 -1111 -1111 -8 -15 -14 -40 -14 -56
0 -62 77 -114 136 -92 16 6 223 205 477 458 l447 447 0 -2195 0 -2195 -452
451 c-299 298 -462 454 -480 458 -29 7 -74 -7 -100 -31 -21 -19 -33 -72 -23
-105 11 -37 1093 -1116 1133 -1129 18 -6 45 -8 60 -4 30 7 1103 1070 1128
1117 8 15 14 40 14 56 0 62 -77 114 -136 92 -16 -6 -223 -205 -476 -458 l-448
-447 0 2195 0 2195 453 -451 c298 -298 461 -454 479 -458 29 -7 74 7 100 31
21 19 33 72 23 105 -10 32 -1082 1107 -1122 1124 -38 17 -61 17 -88 3z"/>
</g>
</svg>
