<?xml version="1.0" standalone="no"?>
<!DOCTYPE svg PUBLIC "-//W3C//DTD SVG 20010904//EN"
 "http://www.w3.org/TR/2001/REC-SVG-20010904/DTD/svg10.dtd">
<svg version="1.0" xmlns="http://www.w3.org/2000/svg"
 width="512.000000pt" height="512.000000pt" viewBox="0 0 512.000000 512.000000"
 preserveAspectRatio="xMidYMid meet">

<g transform="translate(0.000000,512.000000) scale(0.100000,-0.100000)"
fill="#000000" stroke="none">
<path d="M1925 5110 c-1012 -7 -980 -5 -1126 -65 -177 -71 -297 -210 -329
-380 -8 -44 -10 -603 -8 -2065 l3 -2005 21 -60 c78 -219 206 -371 388 -460
159 -79 67 -75 1682 -75 1613 0 1518 -4 1679 75 186 91 316 239 389 442 l31
88 3 1430 c2 1059 -1 1437 -9 1458 -7 16 -360 348 -823 773 -446 410 -823 763
-838 784 -29 39 -83 72 -115 68 -10 -1 -436 -5 -948 -8z m785 -1023 l0 -723
23 -44 c12 -24 35 -53 50 -64 28 -21 39 -21 803 -24 l774 -2 0 -1274 c0 -1222
-1 -1277 -19 -1335 -38 -122 -131 -228 -249 -284 l-67 -32 -1445 -3 c-1426 -2
-1446 -2 -1512 18 -119 36 -229 141 -280 268 l-23 57 -3 1984 -2 1984 21 45
c35 71 120 120 247 142 26 4 415 8 865 9 l817 1 0 -723z m878 -13 c312 -290
569 -531 570 -535 2 -5 -255 -9 -572 -9 l-576 0 0 535 c0 294 2 535 6 535 3 0
260 -237 572 -526z"/>
</g>
</svg>
